{
    "asset" : {
        "generator" : "Khronos glTF Blender I/O v3.2.43",
        "version" : "2.0"
    },
    "scene" : 0,
    "scenes" : [
        {
            "name" : "Scene",
            "nodes" : [
                0,
                1,
                2,
                3,
                4,
                5
            ]
        }
    ],
    "nodes" : [
        {
            "mesh" : 0,
            "name" : "Circle",
            "scale" : [
                9.374695777893066,
                9.374695777893066,
                9.374695777893066
            ],
            "translation" : [
                0,
                -0.1757882982492447,
                0
            ]
        },
        {
            "mesh" : 1,
            "name" : "Circle.001",
            "scale" : [
                5.4459381103515625,
                5.4459381103515625,
                5.4459381103515625
            ],
            "translation" : [
                -3.764676094055176,
                0,
                0
            ]
        },
        {
            "mesh" : 2,
            "name" : "Circle.002",
            "scale" : [
                3.71848726272583,
                3.71848726272583,
                3.71848726272583
            ],
            "translation" : [
                5.678919315338135,
                0,
                0
            ]
        },
        {
            "mesh" : 3,
            "name" : "Circle.003",
            "scale" : [
                2.0152060985565186,
                2.0152060985565186,
                2.0152060985565186
            ],
            "translation" : [
                2.4247076511383057,
                0,
                5.359879016876221
            ]
        },
        {
            "mesh" : 4,
            "name" : "Circle.006",
            "scale" : [
                1.4361778497695923,
                1.4361778497695923,
                1.4361778497695923
            ],
            "translation" : [
                -0.06380683183670044,
                0.18122948706150055,
                0.19142460823059082
            ]
        },
        {
            "mesh" : 5,
            "name" : "Circle.010",
            "scale" : [
                1.2347490787506104,
                1.2347490787506104,
                1.2347490787506104
            ],
            "translation" : [
                5.934151649475098,
                0.18122948706150055,
                2.1694746017456055
            ]
        }
    ],
    "materials" : [
        {
            "doubleSided" : true,
            "name" : "Material.001",
            "pbrMetallicRoughness" : {
                "baseColorFactor" : [
                    0.2333943098783493,
                    0.24477069079875946,
                    0.25980162620544434,
                    1
                ],
                "metallicFactor" : 0,
                "roughnessFactor" : 0.5
            }
        },
        {
            "doubleSided" : true,
            "name" : "Material.002",
            "pbrMetallicRoughness" : {
                "baseColorFactor" : [
                    0.8000000715255737,
                    0.1587626039981842,
                    0.1587626039981842,
                    1
                ],
                "metallicFactor" : 0,
                "roughnessFactor" : 0.5
            }
        },
        {
            "doubleSided" : true,
            "name" : "Material.003",
            "pbrMetallicRoughness" : {
                "baseColorFactor" : [
                    0.36215221881866455,
                    0.8000000715255737,
                    0.3553132712841034,
                    1
                ],
                "metallicFactor" : 0,
                "roughnessFactor" : 0.5
            }
        },
        {
            "doubleSided" : true,
            "name" : "Material.004",
            "pbrMetallicRoughness" : {
                "baseColorFactor" : [
                    0.8000000715255737,
                    0.03469003736972809,
                    0.042545996606349945,
                    1
                ],
                "metallicFactor" : 0,
                "roughnessFactor" : 0.5
            }
        },
        {
            "doubleSided" : true,
            "name" : "Material.005",
            "pbrMetallicRoughness" : {
                "baseColorFactor" : [
                    0.1687614768743515,
                    0.3343273997306824,
                    0.15219652652740479,
                    1
                ],
                "metallicFactor" : 0,
                "roughnessFactor" : 0.5
            }
        }
    ],
    "meshes" : [
        {
            "name" : "Circle.002",
            "primitives" : [
                {
                    "attributes" : {
                        "POSITION" : 0,
                        "NORMAL" : 1,
                        "TEXCOORD_0" : 2
                    },
                    "indices" : 3,
                    "material" : 0
                }
            ]
        },
        {
            "name" : "Circle.003",
            "primitives" : [
                {
                    "attributes" : {
                        "POSITION" : 4,
                        "NORMAL" : 5,
                        "TEXCOORD_0" : 6
                    },
                    "indices" : 3,
                    "material" : 1
                }
            ]
        },
        {
            "name" : "Circle.004",
            "primitives" : [
                {
                    "attributes" : {
                        "POSITION" : 7,
                        "NORMAL" : 8,
                        "TEXCOORD_0" : 9
                    },
                    "indices" : 3,
                    "material" : 2
                }
            ]
        },
        {
            "name" : "Circle.005",
            "primitives" : [
                {
                    "attributes" : {
                        "POSITION" : 10,
                        "NORMAL" : 11,
                        "TEXCOORD_0" : 12
                    },
                    "indices" : 3
                }
            ]
        },
        {
            "name" : "Circle.008",
            "primitives" : [
                {
                    "attributes" : {
                        "POSITION" : 13,
                        "NORMAL" : 14,
                        "TEXCOORD_0" : 15
                    },
                    "indices" : 16,
                    "material" : 3
                }
            ]
        },
        {
            "name" : "Circle.012",
            "primitives" : [
                {
                    "attributes" : {
                        "POSITION" : 17,
                        "NORMAL" : 18,
                        "TEXCOORD_0" : 19
                    },
                    "indices" : 16,
                    "material" : 4
                }
            ]
        }
    ],
    "accessors" : [
        {
            "bufferView" : 0,
            "componentType" : 5126,
            "count" : 32,
            "max" : [
                1,
                0,
                1
            ],
            "min" : [
                -1,
                0,
                -1
            ],
            "type" : "VEC3"
        },
        {
            "bufferView" : 1,
            "componentType" : 5126,
            "count" : 32,
            "type" : "VEC3"
        },
        {
            "bufferView" : 2,
            "componentType" : 5126,
            "count" : 32,
            "type" : "VEC2"
        },
        {
            "bufferView" : 3,
            "componentType" : 5123,
            "count" : 90,
            "type" : "SCALAR"
        },
        {
            "bufferView" : 4,
            "componentType" : 5126,
            "count" : 32,
            "max" : [
                1,
                0,
                1
            ],
            "min" : [
                -1,
                0,
                -1
            ],
            "type" : "VEC3"
        },
        {
            "bufferView" : 5,
            "componentType" : 5126,
            "count" : 32,
            "type" : "VEC3"
        },
        {
            "bufferView" : 6,
            "componentType" : 5126,
            "count" : 32,
            "type" : "VEC2"
        },
        {
            "bufferView" : 7,
            "componentType" : 5126,
            "count" : 32,
            "max" : [
                1,
                0,
                1
            ],
            "min" : [
                -1,
                0,
                -1
            ],
            "type" : "VEC3"
        },
        {
            "bufferView" : 8,
            "componentType" : 5126,
            "count" : 32,
            "type" : "VEC3"
        },
        {
            "bufferView" : 9,
            "componentType" : 5126,
            "count" : 32,
            "type" : "VEC2"
        },
        {
            "bufferView" : 10,
            "componentType" : 5126,
            "count" : 32,
            "max" : [
                1,
                0,
                1
            ],
            "min" : [
                -1,
                0,
                -1
            ],
            "type" : "VEC3"
        },
        {
            "bufferView" : 11,
            "componentType" : 5126,
            "count" : 32,
            "type" : "VEC3"
        },
        {
            "bufferView" : 12,
            "componentType" : 5126,
            "count" : 32,
            "type" : "VEC2"
        },
        {
            "bufferView" : 13,
            "componentType" : 5126,
            "count" : 128,
            "max" : [
                1,
                0,
                2.4464945793151855
            ],
            "min" : [
                -4.557638645172119,
                0,
                -3.80234432220459
            ],
            "type" : "VEC3"
        },
        {
            "bufferView" : 14,
            "componentType" : 5126,
            "count" : 128,
            "type" : "VEC3"
        },
        {
            "bufferView" : 15,
            "componentType" : 5126,
            "count" : 128,
            "type" : "VEC2"
        },
        {
            "bufferView" : 16,
            "componentType" : 5123,
            "count" : 360,
            "type" : "SCALAR"
        },
        {
            "bufferView" : 17,
            "componentType" : 5126,
            "count" : 128,
            "max" : [
                2.63142728805542,
                0,
                1
            ],
            "min" : [
                -2.8758506774902344,
                0,
                -4.0127434730529785
            ],
            "type" : "VEC3"
        },
        {
            "bufferView" : 18,
            "componentType" : 5126,
            "count" : 128,
            "type" : "VEC3"
        },
        {
            "bufferView" : 19,
            "componentType" : 5126,
            "count" : 128,
            "type" : "VEC2"
        }
    ],
    "bufferViews" : [
        {
            "buffer" : 0,
            "byteLength" : 384,
            "byteOffset" : 0
        },
        {
            "buffer" : 0,
            "byteLength" : 384,
            "byteOffset" : 384
        },
        {
            "buffer" : 0,
            "byteLength" : 256,
            "byteOffset" : 768
        },
        {
            "buffer" : 0,
            "byteLength" : 180,
            "byteOffset" : 1024
        },
        {
            "buffer" : 0,
            "byteLength" : 384,
            "byteOffset" : 1204
        },
        {
            "buffer" : 0,
            "byteLength" : 384,
            "byteOffset" : 1588
        },
        {
            "buffer" : 0,
            "byteLength" : 256,
            "byteOffset" : 1972
        },
        {
            "buffer" : 0,
            "byteLength" : 384,
            "byteOffset" : 2228
        },
        {
            "buffer" : 0,
            "byteLength" : 384,
            "byteOffset" : 2612
        },
        {
            "buffer" : 0,
            "byteLength" : 256,
            "byteOffset" : 2996
        },
        {
            "buffer" : 0,
            "byteLength" : 384,
            "byteOffset" : 3252
        },
        {
            "buffer" : 0,
            "byteLength" : 384,
            "byteOffset" : 3636
        },
        {
            "buffer" : 0,
            "byteLength" : 256,
            "byteOffset" : 4020
        },
        {
            "buffer" : 0,
            "byteLength" : 1536,
            "byteOffset" : 4276
        },
        {
            "buffer" : 0,
            "byteLength" : 1536,
            "byteOffset" : 5812
        },
        {
            "buffer" : 0,
            "byteLength" : 1024,
            "byteOffset" : 7348
        },
        {
            "buffer" : 0,
            "byteLength" : 720,
            "byteOffset" : 8372
        },
        {
            "buffer" : 0,
            "byteLength" : 1536,
            "byteOffset" : 9092
        },
        {
            "buffer" : 0,
            "byteLength" : 1536,
            "byteOffset" : 10628
        },
        {
            "buffer" : 0,
            "byteLength" : 1024,
            "byteOffset" : 12164
        }
    ],
    "buffers" : [
        {
            "byteLength" : 13188,
            "uri" : "data:application/octet-stream;base64,"
        }
    ]
}
