{
    "asset" : {
        "generator" : "Khronos glTF Blender I/O v3.2.43",
        "version" : "2.0"
    },
    "scene" : 0,
    "scenes" : [
        {
            "name" : "Scene",
            "nodes" : [
                2,
                3,
                4,
                5
            ]
        }
    ],
    "nodes" : [
        {
            "mesh" : 0,
            "name" : "Object_1"
        },
        {
            "mesh" : 1,
            "name" : "Object_10"
        },
        {
            "children" : [
                0,
                1
            ],
            "name" : "Default",
            "scale" : [
                0.013070345856249332,
                0.013070345856249332,
                0.013070345856249332
            ],
            "translation" : [
                -8.343271255493164,
                0.09194588661193848,
                -2.1817288398742676
            ]
        },
        {
            "mesh" : 2,
            "name" : "Icosphere.014",
            "scale" : [
                0.03861536830663681,
                0.03861536830663681,
                0.03861536830663681
            ],
            "translation" : [
                -0.35378241539001465,
                0.17300750315189362,
                1.426574945449829
            ]
        },
        {
            "mesh" : 3,
            "name" : "Cube",
            "scale" : [
                0.16312071681022644,
                0.16312071681022644,
                0.16312071681022644
            ],
            "translation" : [
                1.4332911968231201,
                0.29546332359313965,
                0.3376849889755249
            ]
        },
        {
            "mesh" : 4,
            "name" : "Icosphere.009",
            "scale" : [
                0.03861536830663681,
                0.03861536830663681,
                0.03861536830663681
            ],
            "translation" : [
                0.6776353716850281,
                0.17758089303970337,
                2.536827325820923
            ]
        }
    ],
    "materials" : [
        {
            "doubleSided" : true,
            "name" : "Material_2",
            "pbrMetallicRoughness" : {
                "baseColorFactor" : [
                    0.9803921580314636,
                    0.9803921580314636,
                    0.9803921580314636,
                    1
                ],
                "metallicFactor" : 0,
                "roughnessFactor" : 0.5527864098548889
            }
        }
    ],
    "meshes" : [
        {
            "name" : "Object_1",
            "primitives" : [
                {
                    "attributes" : {
                        "POSITION" : 0,
                        "NORMAL" : 1,
                        "TEXCOORD_0" : 2
                    },
                    "indices" : 3,
                    "material" : 0
                }
            ]
        },
        {
            "name" : "Object_10",
            "primitives" : [
                {
                    "attributes" : {
                        "POSITION" : 4,
                        "NORMAL" : 5,
                        "TEXCOORD_0" : 6
                    },
                    "indices" : 7,
                    "material" : 0
                }
            ]
        },
        {
            "name" : "Icosphere.015",
            "primitives" : [
                {
                    "attributes" : {
                        "POSITION" : 8,
                        "NORMAL" : 9,
                        "TEXCOORD_0" : 10
                    },
                    "indices" : 11
                }
            ]
        },
        {
            "name" : "Cube.001",
            "primitives" : [
                {
                    "attributes" : {
                        "POSITION" : 12,
                        "NORMAL" : 13,
                        "TEXCOORD_0" : 14
                    },
                    "indices" : 15
                }
            ]
        },
        {
            "name" : "Icosphere.009",
            "primitives" : [
                {
                    "attributes" : {
                        "POSITION" : 16,
                        "NORMAL" : 17,
                        "TEXCOORD_0" : 18
                    },
                    "indices" : 19
                }
            ]
        }
    ],
    "accessors" : [
        {
            "bufferView" : 0,
            "componentType" : 5126,
            "count" : 46,
            "max" : [
                872.5332641601562,
                0,
                571.752197265625
            ],
            "min" : [
                401.48468017578125,
                -4.459527015686035,
                -247.05538940429688
            ],
            "type" : "VEC3"
        },
        {
            "bufferView" : 1,
            "componentType" : 5126,
            "count" : 46,
            "type" : "VEC3"
        },
        {
            "bufferView" : 2,
            "componentType" : 5126,
            "count" : 46,
            "type" : "VEC2"
        },
        {
            "bufferView" : 3,
            "componentType" : 5123,
            "count" : 72,
            "type" : "SCALAR"
        },
        {
            "bufferView" : 4,
            "componentType" : 5126,
            "count" : 2263,
            "max" : [
                872.2529907226562,
                10.679444313049316,
                572.0191650390625
            ],
            "min" : [
                401.4867858886719,
                -3.145308256149292,
                -246.9672393798828
            ],
            "type" : "VEC3"
        },
        {
            "bufferView" : 5,
            "componentType" : 5126,
            "count" : 2263,
            "type" : "VEC3"
        },
        {
            "bufferView" : 6,
            "componentType" : 5126,
            "count" : 2263,
            "type" : "VEC2"
        },
        {
            "bufferView" : 7,
            "componentType" : 5123,
            "count" : 10659,
            "type" : "SCALAR"
        },
        {
            "bufferView" : 8,
            "componentType" : 5126,
            "count" : 30000,
            "max" : [
                51.02558517456055,
                1,
                67.05574798583984
            ],
            "min" : [
                -56.02756118774414,
                -1,
                -134.1775665283203
            ],
            "type" : "VEC3"
        },
        {
            "bufferView" : 9,
            "componentType" : 5126,
            "count" : 30000,
            "type" : "VEC3"
        },
        {
            "bufferView" : 10,
            "componentType" : 5126,
            "count" : 30000,
            "type" : "VEC2"
        },
        {
            "bufferView" : 11,
            "componentType" : 5123,
            "count" : 30000,
            "type" : "SCALAR"
        },
        {
            "bufferView" : 12,
            "componentType" : 5126,
            "count" : 2002,
            "max" : [
                3.2168445587158203,
                0.35294029116630554,
                23.49170684814453
            ],
            "min" : [
                -27.16877555847168,
                -1.2245804071426392,
                -31.515079498291016
            ],
            "type" : "VEC3"
        },
        {
            "bufferView" : 13,
            "componentType" : 5126,
            "count" : 2002,
            "type" : "VEC3"
        },
        {
            "bufferView" : 14,
            "componentType" : 5126,
            "count" : 2002,
            "type" : "VEC2"
        },
        {
            "bufferView" : 15,
            "componentType" : 5123,
            "count" : 3312,
            "type" : "SCALAR"
        },
        {
            "bufferView" : 16,
            "componentType" : 5126,
            "count" : 240,
            "max" : [
                0.9510578513145447,
                1,
                0.9999999403953552
            ],
            "min" : [
                -0.9510578513145447,
                -1,
                -0.9999999403953552
            ],
            "type" : "VEC3"
        },
        {
            "bufferView" : 17,
            "componentType" : 5126,
            "count" : 240,
            "type" : "VEC3"
        },
        {
            "bufferView" : 18,
            "componentType" : 5126,
            "count" : 240,
            "type" : "VEC2"
        },
        {
            "bufferView" : 19,
            "componentType" : 5123,
            "count" : 240,
            "type" : "SCALAR"
        }
    ],
    "bufferViews" : [
        {
            "buffer" : 0,
            "byteLength" : 552,
            "byteOffset" : 0
        },
        {
            "buffer" : 0,
            "byteLength" : 552,
            "byteOffset" : 552
        },
        {
            "buffer" : 0,
            "byteLength" : 368,
            "byteOffset" : 1104
        },
        {
            "buffer" : 0,
            "byteLength" : 144,
            "byteOffset" : 1472
        },
        {
            "buffer" : 0,
            "byteLength" : 27156,
            "byteOffset" : 1616
        },
        {
            "buffer" : 0,
            "byteLength" : 27156,
            "byteOffset" : 28772
        },
        {
            "buffer" : 0,
            "byteLength" : 18104,
            "byteOffset" : 55928
        },
        {
            "buffer" : 0,
            "byteLength" : 21318,
            "byteOffset" : 74032
        },
        {
            "buffer" : 0,
            "byteLength" : 360000,
            "byteOffset" : 95352
        },
        {
            "buffer" : 0,
            "byteLength" : 360000,
            "byteOffset" : 455352
        },
        {
            "buffer" : 0,
            "byteLength" : 240000,
            "byteOffset" : 815352
        },
        {
            "buffer" : 0,
            "byteLength" : 60000,
            "byteOffset" : 1055352
        },
        {
            "buffer" : 0,
            "byteLength" : 24024,
            "byteOffset" : 1115352
        },
        {
            "buffer" : 0,
            "byteLength" : 24024,
            "byteOffset" : 1139376
        },
        {
            "buffer" : 0,
            "byteLength" : 16016,
            "byteOffset" : 1163400
        },
        {
            "buffer" : 0,
            "byteLength" : 6624,
            "byteOffset" : 1179416
        },
        {
            "buffer" : 0,
            "byteLength" : 2880,
            "byteOffset" : 1186040
        },
        {
            "buffer" : 0,
            "byteLength" : 2880,
            "byteOffset" : 1188920
        },
        {
            "buffer" : 0,
            "byteLength" : 1920,
            "byteOffset" : 1191800
        },
        {
            "buffer" : 0,
            "byteLength" : 480,
            "byteOffset" : 1193720
        }
    ],
    "buffers" : [
        {
            "byteLength" : 1194200,
            "uri" : "data:application/octet-stream;base64,"
        }
    ]
}
