{
    "asset" : {
        "generator" : "Khronos glTF Blender I/O v3.2.43",
        "version" : "2.0"
    },
    "scene" : 0,
    "scenes" : [
        {
            "name" : "Scene",
            "nodes" : [
                0,
                1,
                2,
                3
            ]
        }
    ],
    "nodes" : [
        {
            "mesh" : 0,
            "name" : "buildings",
            "scale" : [
                0.16312071681022644,
                0.16312071681022644,
                0.16312071681022644
            ],
            "translation" : [
                1.4332911968231201,
                0.29546332359313965,
                0.3376849889755249
            ]
        },
        {
            "mesh" : 1,
            "name" : "trees",
            "scale" : [
                0.03861536830663681,
                0.03861536830663681,
                0.03861536830663681
            ],
            "translation" : [
                1.479768991470337,
                0.17758089303970337,
                -1.822102427482605
            ]
        },
        {
            "mesh" : 2,
            "name" : "plane",
            "scale" : [
                0.10369229316711426,
                0.10369229316711426,
                0.10369229316711426
            ]
        },
        {
            "mesh" : 3,
            "name" : "field",
            "scale" : [
                -2.70778489112854,
                -2.70778489112854,
                -2.70778489112854
            ]
        }
    ],
    "materials" : [
        {
            "doubleSided" : true,
            "name" : "Material_2",
            "pbrMetallicRoughness" : {
                "baseColorFactor" : [
                    0.9803921580314636,
                    0.9803921580314636,
                    0.9803921580314636,
                    1
                ],
                "metallicFactor" : 0,
                "roughnessFactor" : 0.5527864098548889
            }
        }
    ],
    "meshes" : [
        {
            "name" : "Cube.001",
            "primitives" : [
                {
                    "attributes" : {
                        "POSITION" : 0,
                        "NORMAL" : 1,
                        "TEXCOORD_0" : 2
                    },
                    "indices" : 3
                }
            ]
        },
        {
            "name" : "trees",
            "primitives" : [
                {
                    "attributes" : {
                        "POSITION" : 4,
                        "NORMAL" : 5,
                        "TEXCOORD_0" : 6
                    },
                    "indices" : 7
                }
            ]
        },
        {
            "name" : "plane",
            "primitives" : [
                {
                    "attributes" : {
                        "POSITION" : 8,
                        "NORMAL" : 9,
                        "TEXCOORD_0" : 10
                    },
                    "indices" : 11,
                    "material" : 0
                }
            ]
        },
        {
            "name" : "field",
            "primitives" : [
                {
                    "attributes" : {
                        "POSITION" : 12,
                        "NORMAL" : 13,
                        "TEXCOORD_0" : 14
                    },
                    "indices" : 15,
                    "material" : 0
                }
            ]
        }
    ],
    "accessors" : [
        {
            "bufferView" : 0,
            "componentType" : 5126,
            "count" : 782,
            "max" : [
                7.166859149932861,
                0.44382423162460327,
                6.478102684020996
            ],
            "min" : [
                -13.336600303649902,
                -1.1336965560913086,
                -7.024526119232178
            ],
            "type" : "VEC3"
        },
        {
            "bufferView" : 1,
            "componentType" : 5126,
            "count" : 782,
            "type" : "VEC3"
        },
        {
            "bufferView" : 2,
            "componentType" : 5126,
            "count" : 782,
            "type" : "VEC2"
        },
        {
            "bufferView" : 3,
            "componentType" : 5123,
            "count" : 1296,
            "type" : "SCALAR"
        },
        {
            "bufferView" : 4,
            "componentType" : 5126,
            "count" : 13920,
            "max" : [
                26.012657165527344,
                1,
                87.83502197265625
            ],
            "min" : [
                -94.20965576171875,
                -1,
                -0.9999999403953552
            ],
            "type" : "VEC3"
        },
        {
            "bufferView" : 5,
            "componentType" : 5126,
            "count" : 13920,
            "type" : "VEC3"
        },
        {
            "bufferView" : 6,
            "componentType" : 5126,
            "count" : 13920,
            "type" : "VEC2"
        },
        {
            "bufferView" : 7,
            "componentType" : 5123,
            "count" : 13920,
            "type" : "SCALAR"
        },
        {
            "bufferView" : 8,
            "componentType" : 5126,
            "count" : 336,
            "max" : [
                27.23202896118164,
                1.050635576248169,
                18.580705642700195
            ],
            "min" : [
                -23.38202476501465,
                0.05117056146264076,
                -20.660978317260742
            ],
            "type" : "VEC3"
        },
        {
            "bufferView" : 9,
            "componentType" : 5126,
            "count" : 336,
            "type" : "VEC3"
        },
        {
            "bufferView" : 10,
            "componentType" : 5126,
            "count" : 336,
            "type" : "VEC2"
        },
        {
            "bufferView" : 11,
            "componentType" : 5123,
            "count" : 444,
            "type" : "SCALAR"
        },
        {
            "bufferView" : 12,
            "componentType" : 5126,
            "count" : 1575,
            "max" : [
                0.7933374643325806,
                -0.03264010325074196,
                0.7088148593902588
            ],
            "min" : [
                -0.9796411991119385,
                -0.07500538229942322,
                -0.622523307800293
            ],
            "type" : "VEC3"
        },
        {
            "bufferView" : 13,
            "componentType" : 5126,
            "count" : 1575,
            "type" : "VEC3"
        },
        {
            "bufferView" : 14,
            "componentType" : 5126,
            "count" : 1575,
            "type" : "VEC2"
        },
        {
            "bufferView" : 15,
            "componentType" : 5123,
            "count" : 7626,
            "type" : "SCALAR"
        }
    ],
    "bufferViews" : [
        {
            "buffer" : 0,
            "byteLength" : 9384,
            "byteOffset" : 0
        },
        {
            "buffer" : 0,
            "byteLength" : 9384,
            "byteOffset" : 9384
        },
        {
            "buffer" : 0,
            "byteLength" : 6256,
            "byteOffset" : 18768
        },
        {
            "buffer" : 0,
            "byteLength" : 2592,
            "byteOffset" : 25024
        },
        {
            "buffer" : 0,
            "byteLength" : 167040,
            "byteOffset" : 27616
        },
        {
            "buffer" : 0,
            "byteLength" : 167040,
            "byteOffset" : 194656
        },
        {
            "buffer" : 0,
            "byteLength" : 111360,
            "byteOffset" : 361696
        },
        {
            "buffer" : 0,
            "byteLength" : 27840,
            "byteOffset" : 473056
        },
        {
            "buffer" : 0,
            "byteLength" : 4032,
            "byteOffset" : 500896
        },
        {
            "buffer" : 0,
            "byteLength" : 4032,
            "byteOffset" : 504928
        },
        {
            "buffer" : 0,
            "byteLength" : 2688,
            "byteOffset" : 508960
        },
        {
            "buffer" : 0,
            "byteLength" : 888,
            "byteOffset" : 511648
        },
        {
            "buffer" : 0,
            "byteLength" : 18900,
            "byteOffset" : 512536
        },
        {
            "buffer" : 0,
            "byteLength" : 18900,
            "byteOffset" : 531436
        },
        {
            "buffer" : 0,
            "byteLength" : 12600,
            "byteOffset" : 550336
        },
        {
            "buffer" : 0,
            "byteLength" : 15252,
            "byteOffset" : 562936
        }
    ],
    "buffers" : [
        {
            "byteLength" : 578188,
            "uri" : "data:application/octet-stream;base64,"
        }
    ]
}
