{
    "asset" : {
        "generator" : "Khronos glTF Blender I/O v3.2.43",
        "version" : "2.0"
    },
    "scene" : 0,
    "scenes" : [
        {
            "name" : "Scene",
            "nodes" : [
                0,
                1,
                2,
                3
            ]
        }
    ],
    "nodes" : [
        {
            "mesh" : 0,
            "name" : "buildings",
            "scale" : [
                0.16312071681022644,
                0.16312071681022644,
                0.16312071681022644
            ],
            "translation" : [
                1.4332911968231201,
                0.29546332359313965,
                0.3376849889755249
            ]
        },
        {
            "mesh" : 1,
            "name" : "trees",
            "scale" : [
                0.03861536830663681,
                0.03861536830663681,
                0.03861536830663681
            ],
            "translation" : [
                0.6776353716850281,
                0.17758089303970337,
                2.536827325820923
            ]
        },
        {
            "mesh" : 2,
            "name" : "field",
            "translation" : [
                0,
                1.5763709545135498,
                0
            ]
        },
        {
            "mesh" : 3,
            "name" : "plane",
            "scale" : [
                0.13376885652542114,
                0.13376885652542114,
                0.13376885652542114
            ],
            "translation" : [
                0,
                0.24690067768096924,
                0
            ]
        }
    ],
    "materials" : [
        {
            "doubleSided" : true,
            "name" : "Material_2",
            "pbrMetallicRoughness" : {
                "baseColorFactor" : [
                    0.9803921580314636,
                    0.9803921580314636,
                    0.9803921580314636,
                    1
                ],
                "metallicFactor" : 0,
                "roughnessFactor" : 0.5527864098548889
            }
        }
    ],
    "meshes" : [
        {
            "name" : "buildings",
            "primitives" : [
                {
                    "attributes" : {
                        "POSITION" : 0,
                        "NORMAL" : 1,
                        "TEXCOORD_0" : 2
                    },
                    "indices" : 3
                }
            ]
        },
        {
            "name" : "trees",
            "primitives" : [
                {
                    "attributes" : {
                        "POSITION" : 4,
                        "NORMAL" : 5,
                        "TEXCOORD_0" : 6
                    },
                    "indices" : 7
                }
            ]
        },
        {
            "name" : "field",
            "primitives" : [
                {
                    "attributes" : {
                        "POSITION" : 8,
                        "NORMAL" : 9,
                        "TEXCOORD_0" : 10
                    },
                    "indices" : 11,
                    "material" : 0
                }
            ]
        },
        {
            "name" : "plane",
            "primitives" : [
                {
                    "attributes" : {
                        "POSITION" : 12,
                        "NORMAL" : 13,
                        "TEXCOORD_0" : 14
                    },
                    "indices" : 15,
                    "material" : 0
                }
            ]
        }
    ],
    "accessors" : [
        {
            "bufferView" : 0,
            "componentType" : 5126,
            "count" : 2002,
            "max" : [
                3.2168445587158203,
                0.35294029116630554,
                23.49170684814453
            ],
            "min" : [
                -27.16877555847168,
                -1.2245804071426392,
                -31.515079498291016
            ],
            "type" : "VEC3"
        },
        {
            "bufferView" : 1,
            "componentType" : 5126,
            "count" : 2002,
            "type" : "VEC3"
        },
        {
            "bufferView" : 2,
            "componentType" : 5126,
            "count" : 2002,
            "type" : "VEC2"
        },
        {
            "bufferView" : 3,
            "componentType" : 5123,
            "count" : 3312,
            "type" : "SCALAR"
        },
        {
            "bufferView" : 4,
            "componentType" : 5126,
            "count" : 70524,
            "max" : [
                55.50872802734375,
                1,
                67.98680114746094
            ],
            "min" : [
                -84.1001968383789,
                -1.1184344291687012,
                -183.75364685058594
            ],
            "type" : "VEC3"
        },
        {
            "bufferView" : 5,
            "componentType" : 5126,
            "count" : 70524,
            "type" : "VEC3"
        },
        {
            "bufferView" : 6,
            "componentType" : 5126,
            "count" : 70524,
            "type" : "VEC2"
        },
        {
            "bufferView" : 7,
            "componentType" : 5125,
            "count" : 70524,
            "type" : "SCALAR"
        },
        {
            "bufferView" : 8,
            "componentType" : 5126,
            "count" : 2263,
            "max" : [
                3.0573768615722656,
                -1.3448410034179688,
                5.294759273529053
            ],
            "min" : [
                -3.095700263977051,
                -1.5255353450775146,
                -5.4096760749816895
            ],
            "type" : "VEC3"
        },
        {
            "bufferView" : 9,
            "componentType" : 5126,
            "count" : 2263,
            "type" : "VEC3"
        },
        {
            "bufferView" : 10,
            "componentType" : 5126,
            "count" : 2263,
            "type" : "VEC2"
        },
        {
            "bufferView" : 11,
            "componentType" : 5123,
            "count" : 10659,
            "type" : "SCALAR"
        },
        {
            "bufferView" : 12,
            "componentType" : 5126,
            "count" : 51,
            "max" : [
                22.883060455322266,
                -1.1583770513534546,
                39.555320739746094
            ],
            "min" : [
                -23.14236068725586,
                -1.5941104888916016,
                -40.4490852355957
            ],
            "type" : "VEC3"
        },
        {
            "bufferView" : 13,
            "componentType" : 5126,
            "count" : 51,
            "type" : "VEC3"
        },
        {
            "bufferView" : 14,
            "componentType" : 5126,
            "count" : 51,
            "type" : "VEC2"
        },
        {
            "bufferView" : 15,
            "componentType" : 5123,
            "count" : 72,
            "type" : "SCALAR"
        }
    ],
    "bufferViews" : [
        {
            "buffer" : 0,
            "byteLength" : 24024,
            "byteOffset" : 0
        },
        {
            "buffer" : 0,
            "byteLength" : 24024,
            "byteOffset" : 24024
        },
        {
            "buffer" : 0,
            "byteLength" : 16016,
            "byteOffset" : 48048
        },
        {
            "buffer" : 0,
            "byteLength" : 6624,
            "byteOffset" : 64064
        },
        {
            "buffer" : 0,
            "byteLength" : 846288,
            "byteOffset" : 70688
        },
        {
            "buffer" : 0,
            "byteLength" : 846288,
            "byteOffset" : 916976
        },
        {
            "buffer" : 0,
            "byteLength" : 564192,
            "byteOffset" : 1763264
        },
        {
            "buffer" : 0,
            "byteLength" : 282096,
            "byteOffset" : 2327456
        },
        {
            "buffer" : 0,
            "byteLength" : 27156,
            "byteOffset" : 2609552
        },
        {
            "buffer" : 0,
            "byteLength" : 27156,
            "byteOffset" : 2636708
        },
        {
            "buffer" : 0,
            "byteLength" : 18104,
            "byteOffset" : 2663864
        },
        {
            "buffer" : 0,
            "byteLength" : 21318,
            "byteOffset" : 2681968
        },
        {
            "buffer" : 0,
            "byteLength" : 612,
            "byteOffset" : 2703288
        },
        {
            "buffer" : 0,
            "byteLength" : 612,
            "byteOffset" : 2703900
        },
        {
            "buffer" : 0,
            "byteLength" : 408,
            "byteOffset" : 2704512
        },
        {
            "buffer" : 0,
            "byteLength" : 144,
            "byteOffset" : 2704920
        }
    ],
    "buffers" : [
        {
            "byteLength" : 2705064,
            "uri" : "data:application/octet-stream;base64,"
        }
    ]
}
