{
    "asset" : {
        "generator" : "Khronos glTF Blender I/O v3.2.43",
        "version" : "2.0"
    },
    "scene" : 0,
    "scenes" : [
        {
            "name" : "Scene",
            "nodes" : [
                0
            ]
        }
    ],
    "nodes" : [
        {
            "mesh" : 0,
            "name" : "Plane",
            "scale" : [
                2.866225004196167,
                2.866225004196167,
                2.866225004196167
            ]
        }
    ],
    "meshes" : [
        {
            "name" : "Plane",
            "primitives" : [
                {
                    "attributes" : {
                        "POSITION" : 0,
                        "NORMAL" : 1,
                        "TEXCOORD_0" : 2
                    },
                    "indices" : 3
                }
            ]
        }
    ],
    "accessors" : [
        {
            "bufferView" : 0,
            "componentType" : 5126,
            "count" : 23806,
            "max" : [
                0.9622666835784912,
                3.9416115283966064,
                0.9689950346946716
            ],
            "min" : [
                -0.9622666239738464,
                0,
                -0.956827700138092
            ],
            "type" : "VEC3"
        },
        {
            "bufferView" : 1,
            "componentType" : 5126,
            "count" : 23806,
            "type" : "VEC3"
        },
        {
            "bufferView" : 2,
            "componentType" : 5126,
            "count" : 23806,
            "type" : "VEC2"
        },
        {
            "bufferView" : 3,
            "componentType" : 5123,
            "count" : 35712,
            "type" : "SCALAR"
        }
    ],
    "bufferViews" : [
        {
            "buffer" : 0,
            "byteLength" : 285672,
            "byteOffset" : 0
        },
        {
            "buffer" : 0,
            "byteLength" : 285672,
            "byteOffset" : 285672
        },
        {
            "buffer" : 0,
            "byteLength" : 190448,
            "byteOffset" : 571344
        },
        {
            "buffer" : 0,
            "byteLength" : 71424,
            "byteOffset" : 761792
        }
    ],
    "buffers" : [
        {
            "byteLength" : 833216,
            "uri" : "data:application/octet-stream;base64,"
        }
    ]
}
