{
    "asset" : {
        "generator" : "Khronos glTF Blender I/O v3.2.43",
        "version" : "2.0"
    },
    "scene" : 0,
    "scenes" : [
        {
            "name" : "Scene",
            "nodes" : [
                0
            ]
        }
    ],
    "nodes" : [
        {
            "mesh" : 0,
            "name" : "Text",
            "rotation" : [
                0.7071068286895752,
                0,
                0,
                0.7071068286895752
            ],
            "scale" : [
                2.2453718185424805,
                2.2453718185424805,
                2.2453718185424805
            ],
            "translation" : [
                -6.113802909851074,
                3.4378304481506348,
                0
            ]
        }
    ],
    "meshes" : [
        {
            "name" : "Text",
            "primitives" : [
                {
                    "attributes" : {
                        "POSITION" : 0,
                        "NORMAL" : 1,
                        "TEXCOORD_0" : 2
                    },
                    "indices" : 3
                }
            ]
        }
    ],
    "accessors" : [
        {
            "bufferView" : 0,
            "componentType" : 5126,
            "count" : 33946,
            "max" : [
                6.0039286613464355,
                -4.437797178979963e-05,
                1.1756668090820312
            ],
            "min" : [
                0.05716301128268242,
                -0.14909715950489044,
                -0.6817010641098022
            ],
            "type" : "VEC3"
        },
        {
            "bufferView" : 1,
            "componentType" : 5126,
            "count" : 33946,
            "type" : "VEC3"
        },
        {
            "bufferView" : 2,
            "componentType" : 5126,
            "count" : 33946,
            "type" : "VEC2"
        },
        {
            "bufferView" : 3,
            "componentType" : 5123,
            "count" : 44892,
            "type" : "SCALAR"
        }
    ],
    "bufferViews" : [
        {
            "buffer" : 0,
            "byteLength" : 407352,
            "byteOffset" : 0
        },
        {
            "buffer" : 0,
            "byteLength" : 407352,
            "byteOffset" : 407352
        },
        {
            "buffer" : 0,
            "byteLength" : 271568,
            "byteOffset" : 814704
        },
        {
            "buffer" : 0,
            "byteLength" : 89784,
            "byteOffset" : 1086272
        }
    ],
    "buffers" : [
        {
            "byteLength" : 1176056,
            "uri" : "data:application/octet-stream;base64,"
        }
    ]
}
