{
    "asset" : {
        "generator" : "Khronos glTF Blender I/O v3.2.43",
        "version" : "2.0"
    },
    "scene" : 0,
    "scenes" : [
        {
            "name" : "Scene",
            "nodes" : [
                0
            ]
        }
    ],
    "nodes" : [
        {
            "mesh" : 0,
            "name" : "Text",
            "rotation" : [
                0.7071068286895752,
                0,
                0,
                0.7071068286895752
            ],
            "scale" : [
                2.2453718185424805,
                2.2453718185424805,
                2.2453718185424805
            ],
            "translation" : [
                -6.113802909851074,
                3.4378304481506348,
                0
            ]
        }
    ],
    "meshes" : [
        {
            "name" : "Text",
            "primitives" : [
                {
                    "attributes" : {
                        "POSITION" : 0,
                        "NORMAL" : 1,
                        "TEXCOORD_0" : 2
                    },
                    "indices" : 3
                }
            ]
        }
    ],
    "accessors" : [
        {
            "bufferView" : 0,
            "componentType" : 5126,
            "count" : 23979,
            "max" : [
                6.006000518798828,
                0,
                1.2300000190734863
            ],
            "min" : [
                0.05700000375509262,
                -0.1492050439119339,
                -0.6820000410079956
            ],
            "type" : "VEC3"
        },
        {
            "bufferView" : 1,
            "componentType" : 5126,
            "count" : 23979,
            "type" : "VEC3"
        },
        {
            "bufferView" : 2,
            "componentType" : 5126,
            "count" : 23979,
            "type" : "VEC2"
        },
        {
            "bufferView" : 3,
            "componentType" : 5123,
            "count" : 37176,
            "type" : "SCALAR"
        }
    ],
    "bufferViews" : [
        {
            "buffer" : 0,
            "byteLength" : 287748,
            "byteOffset" : 0
        },
        {
            "buffer" : 0,
            "byteLength" : 287748,
            "byteOffset" : 287748
        },
        {
            "buffer" : 0,
            "byteLength" : 191832,
            "byteOffset" : 575496
        },
        {
            "buffer" : 0,
            "byteLength" : 74352,
            "byteOffset" : 767328
        }
    ],
    "buffers" : [
        {
            "byteLength" : 841680,
            "uri" : "data:application/octet-stream;base64,"
        }
    ]
}
