{
    "asset" : {
        "generator" : "Khronos glTF Blender I/O v3.2.43",
        "version" : "2.0"
    },
    "scene" : 0,
    "scenes" : [
        {
            "name" : "Scene",
            "nodes" : [
                0
            ]
        }
    ],
    "nodes" : [
        {
            "mesh" : 0,
            "name" : "Text",
            "rotation" : [
                0.5,
                0.5,
                -0.5,
                0.5
            ],
            "scale" : [
                7.3688859939575195,
                7.3688859939575195,
                7.3688859939575195
            ],
            "translation" : [
                -0.33658599853515625,
                0,
                12.837753295898438
            ]
        }
    ],
    "meshes" : [
        {
            "name" : "Text.001",
            "primitives" : [
                {
                    "attributes" : {
                        "POSITION" : 0,
                        "NORMAL" : 1,
                        "TEXCOORD_0" : 2
                    },
                    "indices" : 3
                }
            ]
        }
    ],
    "accessors" : [
        {
            "bufferView" : 0,
            "componentType" : 5126,
            "count" : 6080,
            "max" : [
                4.566999912261963,
                0.1906924843788147,
                0.23000000417232513
            ],
            "min" : [
                0.07399998605251312,
                0,
                -0.6910000443458557
            ],
            "type" : "VEC3"
        },
        {
            "bufferView" : 1,
            "componentType" : 5126,
            "count" : 6080,
            "type" : "VEC3"
        },
        {
            "bufferView" : 2,
            "componentType" : 5126,
            "count" : 6080,
            "type" : "VEC2"
        },
        {
            "bufferView" : 3,
            "componentType" : 5123,
            "count" : 9504,
            "type" : "SCALAR"
        }
    ],
    "bufferViews" : [
        {
            "buffer" : 0,
            "byteLength" : 72960,
            "byteOffset" : 0
        },
        {
            "buffer" : 0,
            "byteLength" : 72960,
            "byteOffset" : 72960
        },
        {
            "buffer" : 0,
            "byteLength" : 48640,
            "byteOffset" : 145920
        },
        {
            "buffer" : 0,
            "byteLength" : 19008,
            "byteOffset" : 194560
        }
    ],
    "buffers" : [
        {
            "byteLength" : 213568,
            "uri" : "data:application/octet-stream;base64,"
        }
    ]
}
