{
    "asset" : {
        "generator" : "Khronos glTF Blender I/O v3.2.43",
        "version" : "2.0"
    },
    "scene" : 0,
    "scenes" : [
        {
            "name" : "Scene",
            "nodes" : [
                0
            ]
        }
    ],
    "nodes" : [
        {
            "mesh" : 0,
            "name" : "Text",
            "rotation" : [
                0.7071068286895752,
                0,
                0,
                0.7071068286895752
            ]
        }
    ],
    "meshes" : [
        {
            "name" : "Text",
            "primitives" : [
                {
                    "attributes" : {
                        "POSITION" : 0,
                        "NORMAL" : 1,
                        "TEXCOORD_0" : 2
                    },
                    "indices" : 3
                }
            ]
        }
    ],
    "accessors" : [
        {
            "bufferView" : 0,
            "componentType" : 5126,
            "count" : 17432,
            "max" : [
                2.515927314758301,
                -5.773667726316489e-05,
                1.0089222192764282
            ],
            "min" : [
                0.048927757889032364,
                -0.15726421773433685,
                -0.6378371119499207
            ],
            "type" : "VEC3"
        },
        {
            "bufferView" : 1,
            "componentType" : 5126,
            "count" : 17432,
            "type" : "VEC3"
        },
        {
            "bufferView" : 2,
            "componentType" : 5126,
            "count" : 17432,
            "type" : "VEC2"
        },
        {
            "bufferView" : 3,
            "componentType" : 5123,
            "count" : 23088,
            "type" : "SCALAR"
        }
    ],
    "bufferViews" : [
        {
            "buffer" : 0,
            "byteLength" : 209184,
            "byteOffset" : 0
        },
        {
            "buffer" : 0,
            "byteLength" : 209184,
            "byteOffset" : 209184
        },
        {
            "buffer" : 0,
            "byteLength" : 139456,
            "byteOffset" : 418368
        },
        {
            "buffer" : 0,
            "byteLength" : 46176,
            "byteOffset" : 557824
        }
    ],
    "buffers" : [
        {
            "byteLength" : 604000,
            "uri" : "data:application/octet-stream;base64,"
        }
    ]
}
