{
    "asset" : {
        "generator" : "Khronos glTF Blender I/O v3.2.43",
        "version" : "2.0"
    },
    "scene" : 0,
    "scenes" : [
        {
            "name" : "Scene",
            "nodes" : [
                0
            ]
        }
    ],
    "nodes" : [
        {
            "mesh" : 0,
            "name" : "Text",
            "rotation" : [
                0.5,
                0.5,
                -0.5,
                0.5
            ],
            "scale" : [
                7.3688859939575195,
                7.3688859939575195,
                7.3688859939575195
            ],
            "translation" : [
                -0.33658599853515625,
                0,
                12.837753295898438
            ]
        }
    ],
    "meshes" : [
        {
            "name" : "Text.001",
            "primitives" : [
                {
                    "attributes" : {
                        "POSITION" : 0,
                        "NORMAL" : 1,
                        "TEXCOORD_0" : 2
                    },
                    "indices" : 3
                }
            ]
        }
    ],
    "accessors" : [
        {
            "bufferView" : 0,
            "componentType" : 5126,
            "count" : 31608,
            "max" : [
                4.558924674987793,
                0.18989066779613495,
                0.224191352725029
            ],
            "min" : [
                0.07969271391630173,
                0.0008017589570954442,
                -0.690649151802063
            ],
            "type" : "VEC3"
        },
        {
            "bufferView" : 1,
            "componentType" : 5126,
            "count" : 31608,
            "type" : "VEC3"
        },
        {
            "bufferView" : 2,
            "componentType" : 5126,
            "count" : 31608,
            "type" : "VEC2"
        },
        {
            "bufferView" : 3,
            "componentType" : 5123,
            "count" : 47412,
            "type" : "SCALAR"
        }
    ],
    "bufferViews" : [
        {
            "buffer" : 0,
            "byteLength" : 379296,
            "byteOffset" : 0
        },
        {
            "buffer" : 0,
            "byteLength" : 379296,
            "byteOffset" : 379296
        },
        {
            "buffer" : 0,
            "byteLength" : 252864,
            "byteOffset" : 758592
        },
        {
            "buffer" : 0,
            "byteLength" : 94824,
            "byteOffset" : 1011456
        }
    ],
    "buffers" : [
        {
            "byteLength" : 1106280,
            "uri" : "data:application/octet-stream;base64,"
        }
    ]
}
