{
    "asset" : {
        "generator" : "Khronos glTF Blender I/O v3.2.43",
        "version" : "2.0"
    },
    "scene" : 0,
    "scenes" : [
        {
            "name" : "Scene",
            "nodes" : [
                0
            ]
        }
    ],
    "nodes" : [
        {
            "mesh" : 0,
            "name" : "Text",
            "rotation" : [
                0.7071068286895752,
                0,
                0,
                0.7071068286895752
            ],
            "scale" : [
                1.8201416730880737,
                1.7599514722824097,
                1.8201416730880737
            ],
            "translation" : [
                -2.4340293407440186,
                2.0516414642333984,
                0
            ]
        }
    ],
    "meshes" : [
        {
            "name" : "Text",
            "primitives" : [
                {
                    "attributes" : {
                        "POSITION" : 0,
                        "NORMAL" : 1,
                        "TEXCOORD_0" : 2
                    },
                    "indices" : 3
                }
            ]
        }
    ],
    "accessors" : [
        {
            "bufferView" : 0,
            "componentType" : 5126,
            "count" : 21465,
            "max" : [
                4.804999828338623,
                0.03999999910593033,
                1.0490401983261108
            ],
            "min" : [
                0.030000001192092896,
                -0.03999999910593033,
                -0.7220000624656677
            ],
            "type" : "VEC3"
        },
        {
            "bufferView" : 1,
            "componentType" : 5126,
            "count" : 21465,
            "type" : "VEC3"
        },
        {
            "bufferView" : 2,
            "componentType" : 5126,
            "count" : 21465,
            "type" : "VEC2"
        },
        {
            "bufferView" : 3,
            "componentType" : 5123,
            "count" : 85104,
            "type" : "SCALAR"
        }
    ],
    "bufferViews" : [
        {
            "buffer" : 0,
            "byteLength" : 257580,
            "byteOffset" : 0
        },
        {
            "buffer" : 0,
            "byteLength" : 257580,
            "byteOffset" : 257580
        },
        {
            "buffer" : 0,
            "byteLength" : 171720,
            "byteOffset" : 515160
        },
        {
            "buffer" : 0,
            "byteLength" : 170208,
            "byteOffset" : 686880
        }
    ],
    "buffers" : [
        {
            "byteLength" : 857088,
            "uri" : "data:application/octet-stream;base64,"
        }
    ]
}
