<svg width="107" height="107" viewBox="0 0 107 107" fill="none" xmlns="http://www.w3.org/2000/svg">
<path fill-rule="evenodd" clip-rule="evenodd" d="M36.8953 45.3671V40.7529C36.8953 31.5005 44.3959 24 53.6483 24C62.9006 24 70.4012 31.5005 70.4012 40.7529V45.464C74.9372 46.1757 78.407 50.1013 78.407 54.8372V73.814C78.407 79.0542 74.1589 83.3023 68.9186 83.3023H37.4884C32.2481 83.3023 28 79.0542 28 73.814V54.8372C28 49.7961 31.9313 45.6732 36.8953 45.3671ZM46.9767 40.7529C46.9767 37.0683 49.9637 34.0814 53.6483 34.0814C57.3328 34.0814 60.3198 37.0683 60.3198 40.7529V45.3488H46.9767V40.7529Z" fill="white"/>
</svg>
