<svg width="200" height="200" viewBox="0 0 200 200" fill="none" xmlns="http://www.w3.org/2000/svg">
<path d="M144.097 72.2146L71.2829 31.4384C65.335 28.1076 58 32.4068 58 39.2239V120.776C58 127.593 65.335 131.892 71.2829 128.562L144.097 87.7854C150.182 84.3782 150.182 75.6218 144.097 72.2146Z" fill="white"/>
<path d="M42 158.351V170.651" stroke="white" stroke-width="6.63212" stroke-linecap="round"/>
<path d="M51.5352 154L51.5352 175" stroke="white" stroke-width="6.63212" stroke-linecap="round"/>
<path d="M61.0703 158.351V170.651" stroke="white" stroke-width="6.63212" stroke-linecap="round"/>
<path d="M70.6055 161.5L70.6055 167.5" stroke="white" stroke-width="6.63212" stroke-linecap="round"/>
<path d="M80.1406 161.5L80.1406 167.5" stroke="white" stroke-width="6.63212" stroke-linecap="round"/>
<path d="M89.6758 154L89.6758 175" stroke="white" stroke-width="6.63212" stroke-linecap="round"/>
<path d="M99.2129 157.3L99.2129 171.7" stroke="white" stroke-width="6.63212" stroke-linecap="round"/>
<path d="M108.746 161.5L108.746 167.5" stroke="white" stroke-width="6.63212" stroke-linecap="round"/>
<path d="M118.281 161.5L118.281 167.5" stroke="white" stroke-width="6.63212" stroke-linecap="round"/>
<path d="M127.816 161.5L127.816 167.5" stroke="white" stroke-width="6.63212" stroke-linecap="round"/>
<path d="M137.354 163L137.354 166" stroke="white" stroke-width="6.63212" stroke-linecap="round"/>
<path d="M146.889 163L146.889 166" stroke="white" stroke-width="6.63212" stroke-linecap="round"/>
</svg>
