<svg width="167" height="167" viewBox="0 0 167 167" fill="none" xmlns="http://www.w3.org/2000/svg">
<path d="M137.894 63.5285L48.3774 19.2707C33.9273 12.1265 17 22.6406 17 38.7604V128.077C17 144.265 34.0575 154.775 48.5168 147.497L138.034 102.438C154.053 94.3749 153.971 71.4768 137.894 63.5285Z" fill="#D9D9D9" stroke="#0076FF" stroke-width="14" stroke-linecap="round"/>
<mask id="mask0_3054_13671" style="mask-type:alpha" maskUnits="userSpaceOnUse" x="24" y="24" width="119" height="119">
<path d="M134.792 69.8034L45.275 25.5457C35.4773 20.7016 24 27.8306 24 38.7604V128.077C24 139.053 35.5656 146.179 45.3695 141.244L134.886 96.1857C145.748 90.7184 145.692 75.1927 134.792 69.8034Z" fill="#D9D9D9"/>
</mask>
<g mask="url(#mask0_3054_13671)">
<rect x="-44.1797" y="12.3281" width="226.652" height="150.487" fill="white"/>
</g>
</svg>
